<svg width="22" height="22" viewBox="0 0 24 24" fill="none" xmlns="http://www.w3.org/2000/svg">
    <path d="M0.269531 12.1289C0.269531 13.2773 1.19922 14.207 2.34766 14.207H9.93555V21.7949C9.93555 22.9297 10.8516 23.873 12 23.873C13.1484 23.873 14.0781 22.9297 14.0781 21.7949V14.207H21.666C22.8008 14.207 23.7305 13.2773 23.7305 12.1289C23.7305 10.9941 22.8008 10.0645 21.666 10.0645H14.0781V2.47656C14.0781 1.3418 13.1484 0.398438 12 0.398438C10.8516 0.398438 9.93555 1.3418 9.93555 2.47656V10.0645H2.34766C1.19922 10.0645 0.269531 10.9941 0.269531 12.1289Z" fill="white"/>
</svg>
