<svg width="29" height="29" viewBox="0 0 29 29" fill="none" xmlns="http://www.w3.org/2000/svg">
    <path d="M14.6074 28.0742C22.2363 28.0742 28.5527 21.7441 28.5527 14.1289C28.5527 6.5 22.2227 0.183594 14.5938 0.183594C6.97852 0.183594 0.662109 6.5 0.662109 14.1289C0.662109 21.7441 6.99219 28.0742 14.6074 28.0742ZM14.6074 25.75C8.1543 25.75 3 20.582 3 14.1289C3 7.67578 8.14062 2.50781 14.5938 2.50781C21.0469 2.50781 26.2148 7.67578 26.2285 14.1289C26.2422 20.582 21.0605 25.75 14.6074 25.75ZM8.22266 16.1113C9.31641 16.1113 10.2051 15.2227 10.2051 14.1152C10.2051 13.0215 9.30273 12.1328 8.22266 12.1328C7.11523 12.1328 6.22656 13.0215 6.22656 14.1152C6.22656 15.2227 7.11523 16.1113 8.22266 16.1113ZM14.5938 16.1113C15.6875 16.1113 16.5898 15.2227 16.5898 14.1152C16.5898 13.0215 15.6875 12.1328 14.5938 12.1328C13.5 12.1328 12.5977 13.0215 12.5977 14.1152C12.5977 15.2227 13.5 16.1113 14.5938 16.1113ZM20.9785 16.1113C22.0723 16.1113 22.9609 15.2227 22.9609 14.1152C22.9609 13.0215 22.0723 12.1328 20.9785 12.1328C19.8711 12.1328 18.9824 13.0215 18.9824 14.1152C18.9824 15.2227 19.8711 16.1113 20.9785 16.1113Z" fill="white"/>
</svg>
